# Blender 4.0.2
# www.blender.org
mtllib bowl.mtl
o Cube.001
v -0.028825 -0.050000 -0.000000
v -0.050000 -0.028825 -0.000000
v -0.045000 -0.026754 0.020000
v -0.026754 -0.045000 0.020000
v -0.050000 0.028825 -0.000000
v -0.028825 0.050000 -0.000000
v -0.026754 0.045000 0.020000
v -0.045000 0.026754 0.020000
v 0.050000 -0.028825 -0.000000
v 0.028825 -0.050000 -0.000000
v 0.026754 -0.045000 0.020000
v 0.045000 -0.026754 0.020000
v 0.028825 0.050000 -0.000000
v 0.050000 0.028825 -0.000000
v 0.045000 0.026754 0.020000
v 0.026754 0.045000 0.020000
v -0.028825 -0.050000 0.020000
v -0.050000 -0.028825 0.020000
v -0.050000 0.028825 0.020000
v -0.028825 0.050000 0.020000
v 0.028825 0.050000 0.020000
v 0.050000 0.028825 0.020000
v 0.050000 -0.028825 0.020000
v 0.028825 -0.050000 0.020000
v -0.026754 -0.045000 0.005000
v -0.045000 -0.026754 0.005000
v -0.045000 0.026754 0.005000
v -0.026754 0.045000 0.005000
v 0.026754 0.045000 0.005000
v 0.045000 0.026754 0.005000
v 0.045000 -0.026754 0.005000
v 0.026754 -0.045000 0.005000
vn -0.0000 -1.0000 -0.0000
vn 1.0000 -0.0000 -0.0000
vn -1.0000 -0.0000 -0.0000
vn -0.0000 1.0000 -0.0000
vn -0.7071 -0.7071 -0.0000
vn -0.7071 0.7071 -0.0000
vn 0.7071 0.7071 -0.0000
vn 0.7071 -0.7071 -0.0000
vn -0.0000 -0.0000 -1.0000
vn -0.0000 -0.0000 1.0000
vt 0.375000 0.802938
vt 0.625000 0.802938
vt 0.625000 0.947062
vt 0.375000 0.947062
vt 0.375000 0.552938
vt 0.625000 0.552938
vt 0.625000 0.697062
vt 0.375000 0.697062
vt 0.683116 0.512500
vt 0.816884 0.512500
vt 0.375000 0.052938
vt 0.625000 0.052938
vt 0.625000 0.197062
vt 0.375000 0.197062
vt 0.375000 0.302938
vt 0.625000 0.302938
vt 0.625000 0.447062
vt 0.375000 0.447062
vt 0.375000 0.000000
vt 0.625000 0.000000
vt 0.125000 0.552938
vt 0.177938 0.500000
vt 0.322062 0.500000
vt 0.322062 0.750000
vt 0.177938 0.750000
vt 0.125000 0.697062
vt 0.816885 0.737500
vt 0.862500 0.691885
vt 0.875000 0.697062
vt 0.822062 0.750000
vt 0.862500 0.558115
vt 0.822062 0.500000
vt 0.875000 0.552938
vt 0.637500 0.558115
vt 0.677938 0.500000
vt 0.637500 0.691884
vt 0.683116 0.737500
vt 0.677938 0.750000
s 0
f 10/1/1 24/2/1 17/3/1 1/4/1
f 14/5/2 22/6/2 23/7/2 9/8/2
f 16/9/1 7/10/1 28/10/1 29/9/1
f 2/11/3 18/12/3 19/13/3 5/14/3
f 6/15/4 20/16/4 21/17/4 13/18/4
f 1/19/5 17/20/5 18/12/5 2/11/5
f 20/16/6 6/15/6 5/14/6 19/13/6
f 22/6/7 14/5/7 13/18/7 21/17/7
f 24/2/8 10/1/8 9/8/8 23/7/8
f 5/21/9 6/22/9 13/23/9 14/5/9 9/8/9 10/24/9 1/25/9 2/26/9
f 4/27/10 3/28/10 18/29/10 17/30/10
f 8/31/10 7/10/10 20/32/10 19/33/10
f 16/9/10 15/34/10 22/6/10 21/35/10
f 12/36/10 11/37/10 24/38/10 23/7/10
f 3/28/10 8/31/10 19/33/10 18/29/10
f 11/37/10 4/27/10 17/30/10 24/38/10
f 15/34/10 12/36/10 23/7/10 22/6/10
f 7/10/10 16/9/10 21/35/10 20/32/10
f 30/34/10 29/9/10 28/10/10 27/31/10 26/28/10 25/27/10 32/37/10 31/36/10
f 4/27/4 11/37/4 32/37/4 25/27/4
f 11/37/6 12/36/6 31/36/6 32/37/6
f 7/10/8 8/31/8 27/31/8 28/10/8
f 12/36/3 15/34/3 30/34/3 31/36/3
f 8/31/2 3/28/2 26/28/2 27/31/2
f 15/34/5 16/9/5 29/9/5 30/34/5
f 3/28/7 4/27/7 25/27/7 26/28/7
